# xmcd
#
# Track frame offsets:
#	150
#	14052
#	26600
#	43574
#	62856
#	86626
#	106914
#	124562
#	144611
#	154856
#	170049
#	188246
#
# Disc length: 2751 seconds
# Revision: 0
# Processed by: cddbd v1.5.2PL0 Copyright (c) Steve Scherf et al.
# Submitted via: dBpowerAMP V12.0
#
DISCID=a40abd0c
DTITLE=Kristina Westin   - A Better Life 
DYEAR=2009
DGENRE=Country
TTITLE0=Laura
TTITLE1=Satisfied
TTITLE2=Flowers
TTITLE3=Glass House
TTITLE4=Spirit
TTITLE5=One More Night
TTITLE6=Out There
TTITLE7=No Regrets
TTITLE8=Harmony
TTITLE9=A Better Life
TTITLE10=Start All Over
TTITLE11=Last Goodbye
EXTD=
EXTT0=
EXTT1=
EXTT2=
EXTT3=
EXTT4=
EXTT5=
EXTT6=
EXTT7=
EXTT8=
EXTT9=
EXTT10=
EXTT11=
PLAYORDER=
